<svg xmlns="http://www.w3.org/2000/svg" width="523" height="319" viewBox="0 0 523 319">
<g>
<path d="M 0.00 0.00 L 523.00 0.00 L 523.00 319.00 L 0.00 319.00 ZM 42.97 128.30 C44.61,130.88 46.09,133.00 46.26,133.00 C46.43,133.00 46.57,128.84 46.58,123.75 C46.59,110.97 50.47,102.58 59.29,96.27 C63.40,93.32 63.84,93.24 78.00,92.74 C89.29,92.34 94.78,91.63 102.78,89.55 C114.48,86.50 131.86,79.58 147.69,71.68 C161.89,64.60 170.29,61.32 181.93,58.34 C229.65,46.12 288.59,50.30 346.39,70.00 C354.57,72.79 361.45,74.88 361.68,74.65 C362.61,73.72 340.56,60.39 327.50,53.99 C295.25,38.17 267.89,32.04 229.50,32.04 C201.65,32.04 180.60,35.12 156.68,42.69 C141.46,47.50 134.48,50.38 113.61,60.47 C87.38,73.13 83.18,74.43 68.50,74.35 C61.24,74.31 53.61,73.63 49.18,72.64 C49.02,72.60 48.85,72.57 48.69,72.53 C42.63,71.17 40.97,70.80 40.27,71.45 C39.99,71.72 39.87,72.15 39.67,72.75 C39.36,73.71 38.18,77.17 37.05,80.44 C31.79,95.54 34.11,114.33 42.97,128.30 ZM 495.50 115.36 C506.63,119.93 506.35,118.28 494.52,109.57 C481.45,99.95 463.28,91.95 445.53,88.00 C436.27,85.94 417.55,84.02 406.69,84.01 C398.32,84.00 394.81,84.43 391.19,85.91 C374.88,92.58 357.65,97.54 336.50,101.65 C323.09,104.26 321.18,104.38 291.00,104.38 C263.84,104.39 257.32,104.08 243.68,102.17 C224.70,99.50 208.12,96.25 186.14,90.88 C177.15,88.68 169.60,87.07 169.37,87.30 C168.70,87.97 188.35,96.41 202.04,101.34 C232.17,112.19 255.85,116.00 293.21,116.00 C317.24,116.00 340.26,113.71 368.00,108.56 C399.62,102.69 405.71,101.91 424.50,101.33 C452.17,100.47 465.82,103.17 495.50,115.36 ZM 142.37 201.98 C146.00,203.11 159.43,202.55 163.21,201.11 C165.47,200.25 166.05,198.98 167.90,190.99 C169.05,185.96 170.27,180.15 170.60,178.07 L 171.21 174.31 L 161.35 174.77 C155.93,175.02 151.41,175.31 151.30,175.40 C151.18,175.50 150.79,177.47 150.42,179.79 C149.75,183.98 149.76,184.00 152.87,184.00 C155.51,184.00 156.00,184.38 156.00,186.42 C156.00,187.75 155.73,189.55 155.39,190.42 C154.49,192.77 148.83,192.43 146.06,189.84 C144.01,187.93 143.81,187.03 144.27,181.91 C144.91,174.91 148.14,168.78 152.42,166.47 C155.60,164.76 163.46,164.73 167.19,166.41 C168.50,167.00 169.35,166.23 171.01,162.99 C172.18,160.69 172.92,158.23 172.65,157.52 C171.85,155.44 162.39,153.67 155.77,154.37 C143.95,155.60 135.56,162.90 132.52,174.60 C129.78,185.10 130.93,192.50 136.11,197.81 C137.83,199.57 140.65,201.44 142.37,201.98 ZM 320.44 198.69 C321.16,200.59 329.47,200.39 331.43,198.43 C332.29,197.56 333.00,196.24 333.00,195.48 C333.00,191.66 335.31,184.00 336.46,184.00 C337.74,184.00 341.21,190.99 342.52,196.20 C343.09,198.48 343.89,199.01 347.58,199.56 C350.00,199.93 353.08,199.95 354.43,199.61 C356.85,199.00 356.87,198.93 355.38,195.24 C354.55,193.18 353.00,189.59 351.94,187.26 C349.42,181.76 349.46,181.38 352.96,177.40 C359.09,170.41 358.97,161.31 352.68,156.61 C350.32,154.85 348.14,154.44 339.43,154.16 C333.69,153.97 329.00,154.11 329.00,154.47 C329.00,154.83 326.96,164.64 324.47,176.26 C321.98,187.88 320.16,197.98 320.44,198.69 ZM 198.54 199.07 C199.30,200.30 211.27,199.49 211.75,198.18 C212.39,196.43 220.25,186.00 220.92,186.00 C221.34,186.00 222.51,188.73 223.52,192.06 C225.54,198.73 227.01,200.01 232.68,199.98 C239.18,199.96 239.30,199.47 235.47,188.47 C233.56,183.00 232.00,177.79 232.00,176.90 C232.00,176.01 235.59,170.49 239.99,164.64 L 247.97 154.00 L 233.47 154.00 L 229.48 160.39 C224.87,167.80 223.74,167.65 221.90,159.42 L 220.68 154.00 L 214.34 154.00 C210.85,154.00 208.00,154.34 208.00,154.75 C208.00,155.16 209.38,159.71 211.06,164.87 C212.75,170.02 213.90,174.81 213.63,175.52 C213.36,176.23 209.69,181.56 205.48,187.36 C201.08,193.43 198.13,198.41 198.54,199.07 ZM 245.66 199.29 C249.51,200.29 253.91,199.95 255.31,198.55 C256.11,197.75 257.08,194.94 257.48,192.30 C258.59,184.89 259.18,184.30 265.87,183.82 C270.33,183.49 272.68,182.72 275.31,180.71 C281.74,175.81 283.69,165.76 279.47,159.31 C276.97,155.50 272.12,154.00 262.28,154.00 L 253.50 154.00 L 249.22 174.25 C246.87,185.39 244.69,195.47 244.38,196.66 C243.97,198.21 244.33,198.95 245.66,199.29 ZM 284.46 198.75 C285.01,200.20 307.59,200.54 309.82,199.13 C311.30,198.20 313.18,191.11 312.33,189.72 C312.03,189.23 309.69,188.93 307.14,189.05 C298.87,189.42 298.85,189.41 299.19,185.25 L 299.50 181.50 L 306.29 181.20 C313.60,180.88 313.66,180.83 315.37,173.75 L 316.04 171.00 L 303.00 171.00 L 303.00 164.00 L 310.44 164.00 C314.53,164.00 318.12,163.62 318.40,163.15 C318.69,162.69 319.23,160.44 319.59,158.15 L 320.26 154.00 L 306.63 154.00 C299.13,154.00 293.00,154.39 293.00,154.87 C293.00,155.35 290.97,165.13 288.49,176.61 C286.01,188.10 284.19,198.06 284.46,198.75 ZM 369.10 199.11 C369.87,199.61 372.52,199.90 374.98,199.76 L 379.46 199.50 L 381.71 189.00 C382.95,183.23 384.68,175.24 385.55,171.25 L 387.14 164.00 L 396.76 164.00 L 397.88 159.56 C398.50,157.11 399.00,154.86 399.00,154.56 C399.00,154.25 391.82,154.00 383.05,154.00 L 367.09 154.00 L 366.05 157.75 C364.40,163.72 364.56,164.00 369.61,164.00 L 374.21 164.00 L 373.77 167.75 C373.52,169.81 372.05,177.51 370.51,184.85 C368.14,196.09 367.92,198.34 369.10,199.11 ZM 210.25 260.72 C249.19,262.65 326.35,261.58 330.87,259.06 C332.78,257.98 295.12,256.75 260.50,256.75 C227.42,256.75 191.00,257.93 191.00,259.00 C191.00,259.42 199.66,260.19 210.25,260.72 ZM 226.67 295.33 C228.14,296.81 234.82,295.93 237.37,293.93 C239.53,292.23 240.00,291.03 240.00,287.26 C240.00,280.82 238.09,279.00 231.35,279.00 L 226.00 279.00 L 226.00 286.83 C226.00,291.14 226.30,294.97 226.67,295.33 ZM 293.64 236.31 C294.92,237.58 296.00,235.81 296.00,232.44 C296.00,229.17 296.17,229.00 299.53,229.00 C302.90,229.00 303.85,229.82 304.36,233.17 C304.67,235.27 306.06,237.08 306.94,236.54 C307.38,236.27 307.38,234.12 306.95,231.77 C306.52,229.42 306.41,226.26 306.71,224.75 C307.56,220.45 305.59,219.00 298.88,219.00 L 293.00 219.00 L 293.00 227.33 C293.00,231.92 293.29,235.95 293.64,236.31 ZM 377.50 295.42 C379.63,296.32 380.00,295.88 380.00,292.43 C380.00,289.13 380.20,288.89 382.75,289.18 C384.81,289.42 385.59,290.12 385.85,292.00 C386.18,294.35 387.55,295.95 389.25,295.98 C390.43,296.01 390.13,289.20 388.91,288.45 C388.13,287.96 388.13,287.47 388.91,286.69 C390.36,285.24 390.30,281.70 388.80,280.20 C388.14,279.54 385.25,279.00 382.38,279.00 L 377.15 279.00 L 376.83 287.00 C376.63,291.71 376.91,295.18 377.50,295.42 ZM 265.32 299.92 C268.01,300.92 271.15,300.18 272.75,298.18 C273.47,297.28 274.00,293.78 274.00,289.94 L 274.00 283.25 L 269.53 283.16 C264.12,283.06 262.00,284.86 262.00,289.55 C262.00,293.33 265.68,296.72 268.58,295.61 C269.59,295.22 270.01,295.45 269.74,296.25 C269.47,297.04 267.93,297.37 265.54,297.16 C261.47,296.79 261.34,298.45 265.32,299.92 ZM 236.75 236.43 C237.16,236.85 237.64,235.32 237.81,233.04 L 238.12 228.89 L 242.31 229.20 C246.14,229.47 246.53,229.75 246.83,232.50 C247.20,235.94 248.37,237.51 249.86,236.59 C250.55,236.16 250.45,234.48 249.54,231.47 C248.77,228.92 248.58,226.76 249.10,226.44 C250.74,225.42 250.05,221.09 248.07,220.04 C247.00,219.47 243.85,219.00 241.07,219.00 L 236.00 219.00 L 236.00 227.33 C236.00,231.92 236.34,236.01 236.75,236.43 ZM 112.00 291.63 C112.00,298.40 112.29,300.00 113.50,300.00 C114.44,300.00 115.00,299.05 115.00,297.48 C115.00,295.29 115.33,295.04 117.51,295.59 C118.92,295.95 120.65,295.70 121.45,295.04 C123.79,293.10 124.37,288.22 122.59,285.50 C121.28,283.50 120.22,283.09 116.50,283.16 L 112.00 283.25 ZM 406.00 291.63 C406.00,298.40 406.29,300.00 407.50,300.00 C408.44,300.00 409.00,299.05 409.00,297.48 C409.00,295.32 409.34,295.05 411.41,295.57 C414.37,296.31 418.00,293.09 418.00,289.72 C418.00,285.35 415.38,283.07 410.47,283.16 L 406.00 283.25 ZM 175.65 201.17 C179.55,205.47 188.00,202.07 188.00,196.20 C188.00,192.41 186.32,191.00 181.80,191.00 C175.28,191.00 171.75,196.85 175.65,201.17 ZM 168.23 294.77 C171.88,296.53 173.72,296.18 175.98,293.29 C179.75,288.51 176.56,282.61 170.53,283.21 C164.81,283.77 163.11,292.30 168.23,294.77 ZM 292.22 294.44 C295.21,296.54 297.60,296.40 300.00,294.00 C303.92,290.08 301.36,283.00 296.01,283.00 C292.20,283.00 290.00,285.39 290.00,289.51 C290.00,291.87 290.67,293.36 292.22,294.44 ZM 275.78 236.40 C276.31,237.31 279.00,234.31 279.00,232.81 C279.00,232.36 280.73,232.00 282.84,232.00 C285.99,232.00 286.89,232.46 287.84,234.56 C288.48,235.96 289.40,236.87 289.88,236.57 C291.33,235.68 284.81,219.00 283.01,219.00 C281.35,219.00 274.81,234.73 275.78,236.40 ZM 394.00 294.00 C397.58,297.58 402.35,295.99 403.38,290.87 C404.22,286.63 401.88,283.00 398.31,283.00 C392.56,283.00 389.87,289.87 394.00,294.00 ZM 218.75 236.40 C219.31,237.31 222.00,234.33 222.00,232.81 C222.00,232.36 223.69,232.00 225.76,232.00 C228.63,232.00 229.76,232.51 230.51,234.14 C231.45,236.16 233.02,236.87 232.99,235.25 C232.98,234.84 231.74,231.01 230.24,226.75 C228.44,221.67 226.98,219.00 225.97,219.00 C224.31,219.00 217.76,234.79 218.75,236.40 ZM 127.07 293.37 C130.76,298.06 136.22,296.00 136.87,289.67 C137.47,283.92 131.10,280.90 127.00,285.00 C124.44,287.56 124.47,290.05 127.07,293.37 ZM 420.53 294.65 C421.51,295.36 424.14,295.82 426.38,295.67 C430.37,295.41 430.45,295.33 430.79,291.26 C431.27,285.51 429.72,283.00 425.66,283.00 C422.54,283.00 420.00,284.45 420.00,286.25 C420.00,286.71 421.58,286.80 423.50,286.43 C425.60,286.04 427.00,286.18 427.00,286.78 C427.00,287.33 425.45,288.07 423.56,288.42 C419.39,289.20 417.74,292.60 420.53,294.65 ZM 250.04 294.64 C250.62,295.22 253.09,295.65 255.54,295.59 L 260.00 295.50 L 260.00 291.18 C260.00,288.81 259.53,286.00 258.96,284.93 C257.21,281.65 249.00,282.79 249.00,286.31 C249.00,286.81 250.57,286.93 252.50,286.57 C254.69,286.16 256.00,286.30 256.00,286.95 C256.00,287.53 254.96,288.00 253.70,288.00 C249.73,288.00 247.49,292.09 250.04,294.64 ZM 99.62 294.13 C102.81,297.66 110.64,295.60 109.85,291.43 C109.63,290.31 108.14,289.07 106.29,288.47 C101.59,286.94 100.92,285.63 105.25,286.41 C107.31,286.79 109.00,286.71 109.00,286.25 C109.00,283.32 102.57,281.83 100.20,284.20 C98.46,285.94 98.73,288.74 100.75,289.93 C102.34,290.88 102.29,291.03 100.21,291.61 C98.04,292.22 98.01,292.35 99.62,294.13 ZM 276.44 294.71 C277.50,297.46 279.50,295.34 280.00,290.93 C280.35,287.84 281.01,286.42 282.19,286.20 C283.56,285.94 283.94,286.80 284.19,290.69 C284.41,294.16 284.92,295.50 286.00,295.50 C287.08,295.50 287.59,294.16 287.81,290.67 C288.21,284.33 286.95,282.93 281.12,283.25 L 276.50 283.50 L 276.19 288.37 C276.02,291.05 276.13,293.90 276.44,294.71 ZM 311.67 236.33 C312.70,237.36 322.81,237.12 323.47,236.05 C323.80,235.52 321.77,234.98 318.78,234.80 C313.85,234.52 313.48,234.32 313.18,231.75 C312.88,229.11 313.05,229.00 317.37,229.00 C323.51,229.00 324.25,227.19 318.27,226.81 C313.90,226.53 313.47,226.27 313.18,223.75 C312.88,221.07 313.00,221.00 317.93,221.00 C320.72,221.00 323.00,220.55 323.00,220.00 C323.00,219.44 320.33,219.00 317.00,219.00 L 311.00 219.00 L 311.00 227.33 C311.00,231.92 311.30,235.97 311.67,236.33 ZM 204.91 235.72 C208.54,238.50 216.00,235.96 216.00,231.94 C216.00,229.43 214.32,229.43 213.52,231.95 C212.64,234.71 209.36,235.46 206.45,233.56 C204.48,232.27 204.00,231.11 204.00,227.68 C204.00,225.32 204.54,222.86 205.20,222.20 C206.99,220.41 212.09,220.74 213.56,222.75 C215.16,224.94 216.81,223.52 215.36,221.20 C214.67,220.10 212.70,219.39 209.76,219.20 C205.84,218.94 204.94,219.27 203.11,221.58 C199.79,225.80 200.64,232.44 204.91,235.72 ZM 85.69 295.35 C87.27,296.94 88.52,295.04 88.81,290.61 C89.06,286.79 89.44,285.94 90.81,286.20 C92.00,286.42 92.65,287.84 93.00,291.01 C93.34,294.04 93.97,295.50 94.95,295.50 C96.09,295.50 96.34,294.28 96.12,290.01 C95.96,287.00 95.63,284.21 95.39,283.82 C95.15,283.43 92.71,283.17 89.98,283.23 L 85.00 283.34 L 85.00 289.00 C85.00,292.12 85.31,294.98 85.69,295.35 ZM 449.44 294.52 C451.72,296.26 454.36,296.41 457.07,294.96 C460.49,293.13 458.86,288.00 454.86,288.00 C453.90,288.00 452.81,287.50 452.43,286.89 C451.96,286.12 452.72,286.00 454.97,286.49 C457.75,287.10 458.14,286.95 457.83,285.35 C457.41,283.10 451.62,282.24 449.39,284.09 C446.92,286.14 448.12,289.39 451.75,290.46 C453.54,290.98 455.00,291.77 455.00,292.21 C455.00,293.31 452.60,293.20 451.44,292.04 C450.83,291.43 449.94,291.44 448.99,292.06 C447.71,292.90 447.77,293.24 449.44,294.52 ZM 262.36 235.83 C265.92,237.55 268.96,237.13 271.55,234.55 C274.07,232.02 274.73,230.00 273.04,230.00 C272.50,230.00 271.61,230.87 271.04,231.93 C268.27,237.10 261.00,234.54 261.00,228.41 C261.00,223.03 262.50,221.00 266.49,221.00 C268.69,221.00 270.25,221.62 270.88,222.74 C271.41,223.70 272.21,224.13 272.64,223.69 C274.41,221.93 271.23,219.50 266.76,219.20 C262.84,218.94 261.94,219.27 260.11,221.58 C256.63,226.01 257.83,233.64 262.36,235.83 ZM 305.75 294.95 C308.28,296.46 313.12,295.79 314.39,293.75 C315.75,291.59 314.18,288.66 311.39,288.15 C310.35,287.96 309.05,287.35 308.50,286.80 C307.83,286.12 308.57,286.01 310.75,286.47 C313.26,287.00 314.00,286.82 314.00,285.69 C314.00,282.88 307.13,281.93 305.04,284.45 C303.09,286.80 304.26,289.36 307.76,290.36 C312.11,291.61 311.91,293.26 307.50,292.43 C303.71,291.72 302.72,293.14 305.75,294.95 ZM 344.40 293.88 C345.45,295.05 347.50,296.00 348.95,296.00 C354.57,296.00 356.31,289.41 350.98,288.35 C349.32,288.01 347.68,287.29 347.33,286.73 C346.93,286.08 348.00,285.96 350.36,286.41 C354.08,287.11 354.94,286.34 352.80,284.20 C351.10,282.50 346.43,282.71 344.57,284.57 C342.40,286.74 344.21,289.89 348.05,290.66 C352.77,291.60 351.56,293.27 346.75,292.47 L 342.50 291.76 ZM 194.40 293.88 C195.45,295.05 197.50,296.00 198.95,296.00 C204.57,296.00 206.31,289.41 200.98,288.35 C199.32,288.01 197.68,287.29 197.33,286.73 C196.93,286.08 198.00,285.96 200.36,286.41 C202.36,286.78 204.00,286.71 204.00,286.25 C204.00,283.32 197.57,281.83 195.20,284.20 C192.93,286.47 193.87,289.05 197.50,290.56 C202.22,292.54 201.91,293.33 196.75,292.47 L 192.50 291.76 ZM 180.67 295.33 C182.20,296.87 182.91,295.73 183.20,291.25 C183.45,287.27 183.82,286.50 185.50,286.50 C187.12,286.50 187.59,287.33 188.00,290.92 C188.76,297.61 191.00,297.45 191.00,290.71 C191.00,284.25 189.96,283.10 184.22,283.18 L 180.00 283.24 L 180.00 288.95 C180.00,292.09 180.30,294.97 180.67,295.33 ZM 140.64 294.49 C142.84,296.70 146.65,296.34 148.47,293.75 C149.92,291.69 149.92,291.47 148.40,291.15 C147.49,290.96 146.39,291.36 145.97,292.05 C144.73,294.05 142.00,292.30 142.00,289.50 C142.00,286.66 144.51,285.11 146.27,286.87 C147.63,288.23 150.00,288.36 150.00,287.07 C150.00,284.96 146.63,282.90 143.63,283.20 C138.32,283.71 136.55,290.41 140.64,294.49 ZM 333.40 295.26 C335.18,296.49 339.21,295.64 340.36,293.80 C341.82,291.48 340.35,290.30 337.91,291.82 C335.38,293.41 334.00,292.56 334.00,289.41 C334.00,286.69 336.75,284.98 337.97,286.95 C338.39,287.64 339.49,288.04 340.40,287.85 C341.92,287.53 341.92,287.31 340.47,285.25 C338.72,282.76 333.90,282.17 332.27,284.25 C329.68,287.56 330.25,293.08 333.40,295.26 ZM 153.20 294.80 C155.49,297.09 158.87,295.75 156.87,293.34 C155.17,291.29 155.03,286.20 156.66,285.58 C157.84,285.12 157.80,284.63 156.42,282.52 C155.51,281.13 154.26,280.00 153.63,280.01 C152.13,280.02 149.92,284.83 151.09,285.56 C151.59,285.87 152.00,287.80 152.00,289.86 C152.00,291.92 152.54,294.14 153.20,294.80 ZM 319.25 295.34 C321.63,296.30 323.00,295.99 323.00,294.50 C323.00,293.67 322.55,293.00 322.00,293.00 C321.45,293.00 321.00,291.42 321.00,289.50 C321.00,287.58 321.45,286.00 322.00,286.00 C322.55,286.00 323.00,285.33 323.00,284.50 C323.00,283.67 322.55,283.00 322.00,283.00 C321.45,283.00 321.00,282.33 321.00,281.50 C321.00,279.27 318.24,279.68 316.94,282.11 C316.13,283.63 316.12,284.52 316.91,285.31 C317.51,285.91 318.00,288.30 318.00,290.62 C318.00,293.05 318.53,295.05 319.25,295.34 ZM 235.17 291.35 C231.51,294.66 230.00,293.34 230.00,286.83 C230.00,282.36 230.19,282.00 232.46,282.00 C236.75,282.00 238.57,288.27 235.17,291.35 ZM 439.69 295.35 C441.20,296.87 442.52,295.13 442.81,291.22 C443.03,288.18 443.62,286.94 445.06,286.48 C448.60,285.36 447.27,283.27 443.00,283.27 L 439.00 283.27 L 439.00 288.97 C439.00,292.10 439.31,294.98 439.69,295.35 ZM 268.97 170.76 C267.97,172.55 266.45,173.61 264.58,173.83 C261.73,174.16 261.72,174.14 262.41,169.83 C263.20,164.87 264.07,163.67 266.54,164.16 C269.62,164.76 270.69,167.67 268.97,170.76 ZM 78.42 294.65 C78.70,295.39 79.63,296.00 80.47,296.00 C81.72,296.00 82.00,294.46 82.00,287.43 C82.00,279.80 81.81,278.89 80.25,279.19 C78.82,279.46 78.45,280.79 78.20,286.41 C78.04,290.20 78.13,293.91 78.42,294.65 ZM 343.00 172.00 C339.30,175.70 337.48,174.07 338.51,167.97 C339.26,163.49 340.16,162.60 343.01,163.50 C345.67,164.35 345.66,169.34 343.00,172.00 ZM 246.50 224.00 C246.50,226.23 246.03,226.53 242.25,226.81 C238.09,227.11 238.00,227.05 238.00,224.00 C238.00,220.95 238.09,220.89 242.25,221.19 C246.03,221.47 246.50,221.77 246.50,224.00 ZM 303.83 225.25 C303.23,226.41 301.76,227.00 299.46,227.00 C296.28,227.00 296.00,226.76 296.00,224.00 C296.00,221.18 296.23,221.00 299.92,221.00 C304.08,221.00 305.32,222.35 303.83,225.25 ZM 433.69 295.35 C435.04,296.71 436.50,295.28 436.71,292.42 C437.06,287.41 436.01,283.00 434.45,283.00 C433.35,283.00 433.00,284.40 433.00,288.83 C433.00,292.04 433.31,294.98 433.69,295.35 ZM 159.44 294.71 C160.74,298.08 162.51,295.11 162.80,289.09 C163.07,283.52 162.90,282.87 161.30,283.18 C159.92,283.44 159.43,284.64 159.19,288.38 C159.02,291.06 159.13,293.90 159.44,294.71 ZM 243.67 295.33 C245.38,297.05 246.00,295.49 246.00,289.50 C246.00,284.39 245.68,283.00 244.50,283.00 C243.34,283.00 243.00,284.31 243.00,288.83 C243.00,292.04 243.30,294.97 243.67,295.33 ZM 325.67 295.33 C327.38,297.05 328.00,295.49 328.00,289.50 C328.00,284.39 327.68,283.00 326.50,283.00 C325.34,283.00 325.00,284.31 325.00,288.83 C325.00,292.04 325.30,294.97 325.67,295.33 ZM 298.31 290.90 C297.68,293.34 295.77,293.63 294.04,291.55 C292.30,289.46 293.17,286.55 295.63,286.20 C298.02,285.85 299.13,287.80 298.31,290.90 ZM 173.50 289.49 C173.50,292.76 170.46,294.36 169.41,291.63 C168.41,289.01 169.43,286.50 171.51,286.50 C173.05,286.50 173.50,287.17 173.50,289.49 ZM 269.50 289.43 C269.50,292.75 267.88,293.76 266.07,291.58 C264.42,289.60 265.68,285.79 267.84,286.21 C268.93,286.42 269.50,287.52 269.50,289.43 ZM 413.50 289.43 C413.50,292.75 411.88,293.76 410.07,291.58 C408.42,289.60 409.68,285.79 411.84,286.21 C412.93,286.42 413.50,287.52 413.50,289.43 ZM 119.50 289.42 C119.50,292.75 117.88,293.77 116.07,291.58 C114.31,289.47 115.16,286.50 117.51,286.50 C119.04,286.50 119.50,287.17 119.50,289.42 ZM 386.50 284.00 C386.50,284.96 385.33,285.61 383.25,285.81 C380.50,286.08 380.00,285.80 380.00,284.00 C380.00,282.20 380.50,281.92 383.25,282.19 C385.33,282.39 386.50,283.04 386.50,284.00 ZM 284.99 228.25 C284.99,228.66 283.90,229.00 282.55,229.00 C280.27,229.00 280.17,228.80 281.15,226.00 C281.73,224.35 282.55,223.00 282.98,223.00 C283.68,223.00 284.95,226.32 284.99,228.25 ZM 227.45 226.75 C228.03,228.67 227.76,229.00 225.62,229.00 C223.25,229.00 223.16,228.83 224.18,225.92 C225.30,222.71 226.31,222.96 227.45,226.75 ZM 362.67 290.33 C363.98,291.64 368.00,291.01 368.00,289.50 C362.13,288.00 361.23,288.90 362.67,290.33 ZM 212.67 290.33 C213.98,291.64 218.00,291.01 218.00,289.50 C212.13,288.00 211.23,288.90 212.67,290.33 ZM 159.00 280.50 C159.00,281.33 159.89,282.00 161.00,282.00 C162.11,282.00 163.00,281.33 163.00,280.50 C163.00,279.67 162.11,279.00 161.00,279.00 C159.89,279.00 159.00,279.67 159.00,280.50 ZM 427.00 290.88 C427.00,291.36 426.37,292.28 425.59,292.93 C424.52,293.81 424.00,293.82 423.46,292.94 C423.07,292.30 423.36,291.38 424.12,290.90 C425.90,289.78 427.00,289.77 427.00,290.88 ZM 256.00 291.50 C256.00,292.33 255.11,293.00 254.00,293.00 C251.62,293.00 251.35,291.46 253.58,290.61 C255.82,289.75 256.00,289.82 256.00,291.50 ZM 433.00 280.50 C433.00,281.33 433.63,282.00 434.39,282.00 C435.16,282.00 436.05,281.33 436.36,280.50 C436.75,279.48 436.31,279.00 434.97,279.00 C433.89,279.00 433.00,279.67 433.00,280.50 ZM 325.00 280.50 C325.00,281.33 325.67,282.00 326.50,282.00 C327.33,282.00 328.00,281.33 328.00,280.50 C328.00,279.67 327.33,279.00 326.50,279.00 C325.67,279.00 325.00,279.67 325.00,280.50 ZM 243.00 280.50 C243.00,281.33 243.68,282.00 244.50,282.00 C245.32,282.00 246.00,281.33 246.00,280.50 C246.00,279.67 245.32,279.00 244.50,279.00 C243.68,279.00 243.00,279.67 243.00,280.50 ZM 133.00 287.00 C133.00,287.55 132.10,288.00 131.00,288.00 C129.90,288.00 129.00,287.55 129.00,287.00 C129.00,286.45 129.90,286.00 131.00,286.00 C132.10,286.00 133.00,286.45 133.00,287.00 ZM 400.00 287.00 C400.00,287.55 399.10,288.00 398.00,288.00 C396.90,288.00 396.00,287.55 396.00,287.00 C396.00,286.45 396.90,286.00 398.00,286.00 C399.10,286.00 400.00,286.45 400.00,287.00 Z" fill="rgb(1,0,0)"/>
<path d="M 42.97 128.30 C34.11,114.33 31.79,95.54 37.05,80.44 C38.18,77.17 39.36,73.71 39.67,72.75 C39.87,72.15 39.99,71.72 40.27,71.45 C40.97,70.80 42.63,71.17 48.69,72.53 C48.85,72.57 49.02,72.60 49.18,72.64 C53.61,73.63 61.24,74.31 68.50,74.35 C83.18,74.43 87.38,73.13 113.61,60.47 C134.48,50.38 141.46,47.50 156.68,42.69 C180.60,35.12 201.65,32.04 229.50,32.04 C267.89,32.04 295.25,38.17 327.50,53.99 C340.56,60.39 362.61,73.72 361.68,74.65 C361.45,74.88 354.57,72.79 346.39,70.00 C288.59,50.30 229.65,46.12 181.93,58.34 C170.29,61.32 161.89,64.60 147.69,71.68 C131.86,79.58 114.48,86.50 102.78,89.55 C94.78,91.63 89.29,92.34 78.00,92.74 C63.84,93.24 63.40,93.32 59.29,96.27 C50.47,102.58 46.59,110.97 46.58,123.75 C46.57,128.84 46.43,133.00 46.26,133.00 C46.09,133.00 44.61,130.88 42.97,128.30 ZM 142.37 201.98 C140.65,201.44 137.83,199.57 136.11,197.81 C130.93,192.50 129.78,185.10 132.52,174.60 C135.56,162.90 143.95,155.60 155.77,154.37 C162.39,153.67 171.85,155.44 172.65,157.52 C172.92,158.23 172.18,160.69 171.01,162.99 C169.35,166.23 168.50,167.00 167.19,166.41 C163.46,164.73 155.60,164.76 152.42,166.47 C148.14,168.78 144.91,174.91 144.27,181.91 C143.81,187.03 144.01,187.93 146.06,189.84 C148.83,192.43 154.49,192.77 155.39,190.42 C155.73,189.55 156.00,187.75 156.00,186.42 C156.00,184.38 155.51,184.00 152.87,184.00 C149.76,184.00 149.75,183.98 150.42,179.79 C150.79,177.47 151.18,175.50 151.30,175.40 C151.41,175.31 155.93,175.02 161.35,174.77 L 171.21 174.31 L 170.60 178.07 C170.27,180.15 169.05,185.96 167.90,190.99 C166.05,198.98 165.47,200.25 163.21,201.11 C159.43,202.55 146.00,203.11 142.37,201.98 ZM 210.25 260.72 C204.20,260.42 198.78,260.04 195.25,259.69 C195.56,259.51 195.67,259.27 195.50,259.00 C195.36,258.77 195.07,258.56 194.71,258.39 C204.79,257.52 233.74,256.75 260.50,256.75 C288.05,256.75 317.52,257.53 327.45,258.39 C326.99,258.56 326.64,258.77 326.50,259.00 C326.24,259.41 326.42,259.69 326.84,259.84 C309.72,261.78 244.88,262.43 210.25,260.72 ZM 226.67 295.33 C226.30,294.97 226.00,291.14 226.00,286.83 L 226.00 279.00 L 231.35 279.00 C238.09,279.00 240.00,280.82 240.00,287.26 C240.00,291.03 239.53,292.23 237.37,293.93 C234.82,295.93 228.14,296.81 226.67,295.33 ZM 293.64 236.31 C293.29,235.95 293.00,231.92 293.00,227.33 L 293.00 219.00 L 298.88 219.00 C305.59,219.00 307.56,220.45 306.71,224.75 C306.41,226.26 306.52,229.42 306.95,231.77 C307.38,234.12 307.38,236.27 306.94,236.54 C306.06,237.08 304.67,235.27 304.36,233.17 C303.85,229.82 302.90,229.00 299.53,229.00 C296.17,229.00 296.00,229.17 296.00,232.44 C296.00,235.81 294.92,237.58 293.64,236.31 ZM 377.50 295.42 C376.91,295.18 376.63,291.71 376.83,287.00 L 377.15 279.00 L 382.38 279.00 C385.25,279.00 388.14,279.54 388.80,280.20 C390.30,281.70 390.36,285.24 388.91,286.69 C388.13,287.47 388.13,287.96 388.91,288.45 C390.13,289.20 390.43,296.01 389.25,295.98 C387.55,295.95 386.18,294.35 385.85,292.00 C385.59,290.12 384.81,289.42 382.75,289.18 C380.20,288.89 380.00,289.13 380.00,292.43 C380.00,295.88 379.63,296.32 377.50,295.42 ZM 265.32 299.92 C261.34,298.45 261.47,296.79 265.54,297.16 C267.93,297.37 269.47,297.04 269.74,296.25 C270.01,295.45 269.59,295.22 268.58,295.61 C265.68,296.72 262.00,293.33 262.00,289.55 C262.00,284.86 264.12,283.06 269.53,283.16 L 274.00 283.25 L 274.00 289.94 C274.00,293.78 273.47,297.28 272.75,298.18 C271.15,300.18 268.01,300.92 265.32,299.92 ZM 236.75 236.43 C236.34,236.01 236.00,231.92 236.00,227.33 L 236.00 219.00 L 241.07 219.00 C243.85,219.00 247.00,219.47 248.07,220.04 C250.05,221.09 250.74,225.42 249.10,226.44 C248.58,226.76 248.77,228.92 249.54,231.47 C250.45,234.48 250.55,236.16 249.86,236.59 C248.37,237.51 247.20,235.94 246.83,232.50 C246.53,229.75 246.14,229.47 242.31,229.20 L 238.12 228.89 L 237.81 233.04 C237.64,235.32 237.16,236.85 236.75,236.43 ZM 112.00 291.63 L 112.00 283.25 L 116.50 283.16 C120.22,283.09 121.28,283.50 122.59,285.50 C124.37,288.22 123.79,293.10 121.45,295.04 C120.65,295.70 118.92,295.95 117.51,295.59 C115.33,295.04 115.00,295.29 115.00,297.48 C115.00,299.05 114.44,300.00 113.50,300.00 C112.29,300.00 112.00,298.40 112.00,291.63 ZM 406.00 291.63 L 406.00 283.25 L 410.47 283.16 C415.38,283.07 418.00,285.35 418.00,289.72 C418.00,293.09 414.37,296.31 411.41,295.57 C409.34,295.05 409.00,295.32 409.00,297.48 C409.00,299.05 408.44,300.00 407.50,300.00 C406.29,300.00 406.00,298.40 406.00,291.63 ZM 175.65 201.17 C171.75,196.85 175.28,191.00 181.80,191.00 C186.32,191.00 188.00,192.41 188.00,196.20 C188.00,202.07 179.55,205.47 175.65,201.17 ZM 168.23 294.77 C163.11,292.30 164.81,283.77 170.53,283.21 C176.56,282.61 179.75,288.51 175.98,293.29 C173.72,296.18 171.88,296.53 168.23,294.77 ZM 292.22 294.44 C290.67,293.36 290.00,291.87 290.00,289.51 C290.00,285.39 292.20,283.00 296.01,283.00 C301.36,283.00 303.92,290.08 300.00,294.00 C297.60,296.40 295.21,296.54 292.22,294.44 ZM 275.78 236.40 C274.81,234.73 281.35,219.00 283.01,219.00 C284.81,219.00 291.33,235.68 289.88,236.57 C289.40,236.87 288.48,235.96 287.84,234.56 C286.89,232.46 285.99,232.00 282.84,232.00 C280.73,232.00 279.00,232.36 279.00,232.81 C279.00,234.31 276.31,237.31 275.78,236.40 ZM 394.00 294.00 C389.87,289.87 392.56,283.00 398.31,283.00 C401.88,283.00 404.22,286.63 403.38,290.87 C402.35,295.99 397.58,297.58 394.00,294.00 ZM 218.75 236.40 C217.76,234.79 224.31,219.00 225.97,219.00 C226.98,219.00 228.44,221.67 230.24,226.75 C231.74,231.01 232.98,234.84 232.99,235.25 C233.02,236.87 231.45,236.16 230.51,234.14 C229.76,232.51 228.63,232.00 225.76,232.00 C223.69,232.00 222.00,232.36 222.00,232.81 C222.00,234.33 219.31,237.31 218.75,236.40 ZM 127.07 293.37 C124.47,290.05 124.44,287.56 127.00,285.00 C131.10,280.90 137.47,283.92 136.87,289.67 C136.22,296.00 130.76,298.06 127.07,293.37 ZM 420.53 294.65 C417.74,292.60 419.39,289.20 423.56,288.42 C425.45,288.07 427.00,287.33 427.00,286.78 C427.00,286.18 425.60,286.04 423.50,286.43 C421.58,286.80 420.00,286.71 420.00,286.25 C420.00,284.45 422.54,283.00 425.66,283.00 C429.72,283.00 431.27,285.51 430.79,291.26 C430.45,295.33 430.37,295.41 426.38,295.67 C424.14,295.82 421.51,295.36 420.53,294.65 ZM 250.04 294.64 C247.49,292.09 249.73,288.00 253.70,288.00 C254.96,288.00 256.00,287.53 256.00,286.95 C256.00,286.30 254.69,286.16 252.50,286.57 C250.57,286.93 249.00,286.81 249.00,286.31 C249.00,282.79 257.21,281.65 258.96,284.93 C259.53,286.00 260.00,288.81 260.00,291.18 L 260.00 295.50 L 255.54 295.59 C253.09,295.65 250.62,295.22 250.04,294.64 ZM 99.62 294.13 C98.01,292.35 98.04,292.22 100.21,291.61 C102.29,291.03 102.34,290.88 100.75,289.93 C98.73,288.74 98.46,285.94 100.20,284.20 C102.57,281.83 109.00,283.32 109.00,286.25 C109.00,286.71 107.31,286.79 105.25,286.41 C100.92,285.63 101.59,286.94 106.29,288.47 C108.14,289.07 109.63,290.31 109.85,291.43 C110.64,295.60 102.81,297.66 99.62,294.13 ZM 276.44 294.71 C276.13,293.90 276.02,291.05 276.19,288.37 L 276.50 283.50 L 281.12 283.25 C286.95,282.93 288.21,284.33 287.81,290.67 C287.59,294.16 287.08,295.50 286.00,295.50 C284.92,295.50 284.41,294.16 284.19,290.69 C283.94,286.80 283.56,285.94 282.19,286.20 C281.01,286.42 280.35,287.84 280.00,290.93 C279.50,295.34 277.50,297.46 276.44,294.71 ZM 311.67 236.33 C311.30,235.97 311.00,231.92 311.00,227.33 L 311.00 219.00 L 317.00 219.00 C320.33,219.00 323.00,219.44 323.00,220.00 C323.00,220.55 320.72,221.00 317.93,221.00 C313.00,221.00 312.88,221.07 313.18,223.75 C313.47,226.27 313.90,226.53 318.27,226.81 C324.25,227.19 323.51,229.00 317.37,229.00 C313.05,229.00 312.88,229.11 313.18,231.75 C313.48,234.32 313.85,234.52 318.78,234.80 C321.77,234.98 323.80,235.52 323.47,236.05 C322.81,237.12 312.70,237.36 311.67,236.33 ZM 204.91 235.72 C200.64,232.44 199.79,225.80 203.11,221.58 C204.94,219.27 205.84,218.94 209.76,219.20 C212.70,219.39 214.67,220.10 215.36,221.20 C216.81,223.52 215.16,224.94 213.56,222.75 C212.09,220.74 206.99,220.41 205.20,222.20 C204.54,222.86 204.00,225.32 204.00,227.68 C204.00,231.11 204.48,232.27 206.45,233.56 C209.36,235.46 212.64,234.71 213.52,231.95 C214.32,229.43 216.00,229.43 216.00,231.94 C216.00,235.96 208.54,238.50 204.91,235.72 ZM 85.69 295.35 C85.31,294.98 85.00,292.12 85.00,289.00 L 85.00 283.34 L 89.98 283.23 C92.71,283.17 95.15,283.43 95.39,283.82 C95.63,284.21 95.96,287.00 96.12,290.01 C96.34,294.28 96.09,295.50 94.95,295.50 C93.97,295.50 93.34,294.04 93.00,291.01 C92.65,287.84 92.00,286.42 90.81,286.20 C89.44,285.94 89.06,286.79 88.81,290.61 C88.52,295.04 87.27,296.94 85.69,295.35 ZM 449.44 294.52 C447.77,293.24 447.71,292.90 448.99,292.06 C449.94,291.44 450.83,291.43 451.44,292.04 C452.60,293.20 455.00,293.31 455.00,292.21 C455.00,291.77 453.54,290.98 451.75,290.46 C448.12,289.39 446.92,286.14 449.39,284.09 C451.62,282.24 457.41,283.10 457.83,285.35 C458.14,286.95 457.75,287.10 454.97,286.49 C452.72,286.00 451.96,286.12 452.43,286.89 C452.81,287.50 453.90,288.00 454.86,288.00 C458.86,288.00 460.49,293.13 457.07,294.96 C454.36,296.41 451.72,296.26 449.44,294.52 ZM 262.36 235.83 C257.83,233.64 256.63,226.01 260.11,221.58 C261.94,219.27 262.84,218.94 266.76,219.20 C271.23,219.50 274.41,221.93 272.64,223.69 C272.21,224.13 271.41,223.70 270.88,222.74 C270.25,221.62 268.69,221.00 266.49,221.00 C262.50,221.00 261.00,223.03 261.00,228.41 C261.00,234.54 268.27,237.10 271.04,231.93 C271.61,230.87 272.50,230.00 273.04,230.00 C274.73,230.00 274.07,232.02 271.55,234.55 C268.96,237.13 265.92,237.55 262.36,235.83 ZM 305.75 294.95 C302.72,293.14 303.71,291.72 307.50,292.43 C311.91,293.26 312.11,291.61 307.76,290.36 C304.26,289.36 303.09,286.80 305.04,284.45 C307.13,281.93 314.00,282.88 314.00,285.69 C314.00,286.82 313.26,287.00 310.75,286.47 C308.57,286.01 307.83,286.12 308.50,286.80 C309.05,287.35 310.35,287.96 311.39,288.15 C314.18,288.66 315.75,291.59 314.39,293.75 C313.12,295.79 308.28,296.46 305.75,294.95 ZM 344.40 293.88 L 342.50 291.76 L 346.75 292.47 C351.56,293.27 352.77,291.60 348.05,290.66 C344.21,289.89 342.40,286.74 344.57,284.57 C346.43,282.71 351.10,282.50 352.80,284.20 C354.94,286.34 354.08,287.11 350.36,286.41 C348.00,285.96 346.93,286.08 347.33,286.73 C347.68,287.29 349.32,288.01 350.98,288.35 C356.31,289.41 354.57,296.00 348.95,296.00 C347.50,296.00 345.45,295.05 344.40,293.88 ZM 194.40 293.88 L 192.50 291.76 L 196.75 292.47 C201.91,293.33 202.22,292.54 197.50,290.56 C193.87,289.05 192.93,286.47 195.20,284.20 C197.57,281.83 204.00,283.32 204.00,286.25 C204.00,286.71 202.36,286.78 200.36,286.41 C198.00,285.96 196.93,286.08 197.33,286.73 C197.68,287.29 199.32,288.01 200.98,288.35 C206.31,289.41 204.57,296.00 198.95,296.00 C197.50,296.00 195.45,295.05 194.40,293.88 ZM 180.67 295.33 C180.30,294.97 180.00,292.09 180.00,288.95 L 180.00 283.24 L 184.22 283.18 C189.96,283.10 191.00,284.25 191.00,290.71 C191.00,297.45 188.76,297.61 188.00,290.92 C187.59,287.33 187.12,286.50 185.50,286.50 C183.82,286.50 183.45,287.27 183.20,291.25 C182.91,295.73 182.20,296.87 180.67,295.33 ZM 140.64 294.49 C136.55,290.41 138.32,283.71 143.63,283.20 C146.63,282.90 150.00,284.96 150.00,287.07 C150.00,288.36 147.63,288.23 146.27,286.87 C144.51,285.11 142.00,286.66 142.00,289.50 C142.00,292.30 144.73,294.05 145.97,292.05 C146.39,291.36 147.49,290.96 148.40,291.15 C149.92,291.47 149.92,291.69 148.47,293.75 C146.65,296.34 142.84,296.70 140.64,294.49 ZM 333.40 295.26 C330.25,293.08 329.68,287.56 332.27,284.25 C333.90,282.17 338.72,282.76 340.47,285.25 C341.92,287.31 341.92,287.53 340.40,287.85 C339.49,288.04 338.39,287.64 337.97,286.95 C336.75,284.98 334.00,286.69 334.00,289.41 C334.00,292.56 335.38,293.41 337.91,291.82 C340.35,290.30 341.82,291.48 340.36,293.80 C339.21,295.64 335.18,296.49 333.40,295.26 ZM 153.20 294.80 C152.54,294.14 152.00,291.92 152.00,289.86 C152.00,287.80 151.59,285.87 151.09,285.56 C149.92,284.83 152.13,280.02 153.63,280.01 C154.26,280.00 155.51,281.13 156.42,282.52 C157.80,284.63 157.84,285.12 156.66,285.58 C155.03,286.20 155.17,291.29 156.87,293.34 C158.87,295.75 155.49,297.09 153.20,294.80 ZM 319.25 295.34 C318.53,295.05 318.00,293.05 318.00,290.62 C318.00,288.30 317.51,285.91 316.91,285.31 C316.12,284.52 316.13,283.63 316.94,282.11 C318.24,279.68 321.00,279.27 321.00,281.50 C321.00,282.33 321.45,283.00 322.00,283.00 C322.55,283.00 323.00,283.67 323.00,284.50 C323.00,285.33 322.55,286.00 322.00,286.00 C321.45,286.00 321.00,287.58 321.00,289.50 C321.00,291.42 321.45,293.00 322.00,293.00 C322.55,293.00 323.00,293.67 323.00,294.50 C323.00,295.99 321.63,296.30 319.25,295.34 ZM 235.17 291.35 C238.57,288.27 236.75,282.00 232.46,282.00 C230.19,282.00 230.00,282.36 230.00,286.83 C230.00,293.34 231.51,294.66 235.17,291.35 ZM 439.69 295.35 C439.31,294.98 439.00,292.10 439.00,288.97 L 439.00 283.27 L 443.00 283.27 C447.27,283.27 448.60,285.36 445.06,286.48 C443.62,286.94 443.03,288.18 442.81,291.22 C442.52,295.13 441.20,296.87 439.69,295.35 ZM 78.42 294.65 C78.13,293.91 78.04,290.20 78.20,286.41 C78.45,280.79 78.82,279.46 80.25,279.19 C81.81,278.89 82.00,279.80 82.00,287.43 C82.00,294.46 81.72,296.00 80.47,296.00 C79.63,296.00 78.70,295.39 78.42,294.65 ZM 246.50 224.00 C246.50,221.77 246.03,221.47 242.25,221.19 C238.09,220.89 238.00,220.95 238.00,224.00 C238.00,227.05 238.09,227.11 242.25,226.81 C246.03,226.53 246.50,226.23 246.50,224.00 ZM 303.83 225.25 C305.32,222.35 304.08,221.00 299.92,221.00 C296.23,221.00 296.00,221.18 296.00,224.00 C296.00,226.76 296.28,227.00 299.46,227.00 C301.76,227.00 303.23,226.41 303.83,225.25 ZM 433.69 295.35 C433.31,294.98 433.00,292.04 433.00,288.83 C433.00,284.40 433.35,283.00 434.45,283.00 C436.01,283.00 437.06,287.41 436.71,292.42 C436.50,295.28 435.04,296.71 433.69,295.35 ZM 159.44 294.71 C159.13,293.90 159.02,291.06 159.19,288.38 C159.43,284.64 159.92,283.44 161.30,283.18 C162.90,282.87 163.07,283.52 162.80,289.09 C162.51,295.11 160.74,298.08 159.44,294.71 ZM 243.67 295.33 C243.30,294.97 243.00,292.04 243.00,288.83 C243.00,284.31 243.34,283.00 244.50,283.00 C245.68,283.00 246.00,284.39 246.00,289.50 C246.00,295.49 245.38,297.05 243.67,295.33 ZM 325.67 295.33 C325.30,294.97 325.00,292.04 325.00,288.83 C325.00,284.31 325.34,283.00 326.50,283.00 C327.68,283.00 328.00,284.39 328.00,289.50 C328.00,295.49 327.38,297.05 325.67,295.33 ZM 298.31 290.90 C299.13,287.80 298.02,285.85 295.63,286.20 C293.17,286.55 292.30,289.46 294.04,291.55 C295.77,293.63 297.68,293.34 298.31,290.90 ZM 173.50 289.49 C173.50,287.17 173.05,286.50 171.51,286.50 C169.43,286.50 168.41,289.01 169.41,291.63 C170.46,294.36 173.50,292.76 173.50,289.49 ZM 269.50 289.43 C269.50,287.52 268.93,286.42 267.84,286.21 C265.68,285.79 264.42,289.60 266.07,291.58 C267.88,293.76 269.50,292.75 269.50,289.43 ZM 413.50 289.43 C413.50,287.52 412.93,286.42 411.84,286.21 C409.68,285.79 408.42,289.60 410.07,291.58 C411.88,293.76 413.50,292.75 413.50,289.43 ZM 119.50 289.42 C119.50,287.17 119.04,286.50 117.51,286.50 C115.16,286.50 114.31,289.47 116.07,291.58 C117.88,293.77 119.50,292.75 119.50,289.42 ZM 386.50 284.00 C386.50,283.04 385.33,282.39 383.25,282.19 C380.50,281.92 380.00,282.20 380.00,284.00 C380.00,285.80 380.50,286.08 383.25,285.81 C385.33,285.61 386.50,284.96 386.50,284.00 ZM 284.99 228.25 C284.95,226.32 283.68,223.00 282.98,223.00 C282.55,223.00 281.73,224.35 281.15,226.00 C280.17,228.80 280.27,229.00 282.55,229.00 C283.90,229.00 284.99,228.66 284.99,228.25 ZM 227.45 226.75 C226.31,222.96 225.30,222.71 224.18,225.92 C223.16,228.83 223.25,229.00 225.62,229.00 C227.76,229.00 228.03,228.67 227.45,226.75 ZM 362.67 290.33 C361.23,288.90 362.13,288.00 365.00,288.00 C368.00,291.01 363.98,291.64 362.67,290.33 ZM 212.67 290.33 C211.23,288.90 212.13,288.00 215.00,288.00 C218.00,291.01 213.98,291.64 212.67,290.33 ZM 159.00 280.50 C159.00,279.67 159.89,279.00 161.00,279.00 C162.11,279.00 163.00,279.67 163.00,280.50 C163.00,281.33 162.11,282.00 161.00,282.00 C159.89,282.00 159.00,281.33 159.00,280.50 ZM 427.00 290.88 C427.00,289.77 425.90,289.78 424.12,290.90 C423.36,291.38 423.07,292.30 423.46,292.94 C424.00,293.82 424.52,293.81 425.59,292.93 C426.37,292.28 427.00,291.36 427.00,290.88 ZM 256.00 291.50 C256.00,289.82 255.82,289.75 253.58,290.61 C251.35,291.46 251.62,293.00 254.00,293.00 C255.11,293.00 256.00,292.33 256.00,291.50 ZM 433.00 280.50 C433.00,279.67 433.89,279.00 434.97,279.00 C436.31,279.00 436.75,279.48 436.36,280.50 C436.05,281.33 435.16,282.00 434.39,282.00 C433.63,282.00 433.00,281.33 433.00,280.50 ZM 325.00 280.50 C325.00,279.67 325.67,279.00 326.50,279.00 C327.33,279.00 328.00,279.67 328.00,280.50 C328.00,281.33 327.33,282.00 326.50,282.00 C325.67,282.00 325.00,281.33 325.00,280.50 ZM 243.00 280.50 C243.00,279.67 243.68,279.00 244.50,279.00 C245.32,279.00 246.00,279.67 246.00,280.50 C246.00,281.33 245.32,282.00 244.50,282.00 C243.68,282.00 243.00,281.33 243.00,280.50 ZM 133.00 287.00 C133.00,286.45 132.10,286.00 131.00,286.00 C129.90,286.00 129.00,286.45 129.00,287.00 C129.00,287.55 129.90,288.00 131.00,288.00 C132.10,288.00 133.00,287.55 133.00,287.00 ZM 400.00 287.00 C400.00,286.45 399.10,286.00 398.00,286.00 C396.90,286.00 396.00,286.45 396.00,287.00 C396.00,287.55 396.90,288.00 398.00,288.00 C399.10,288.00 400.00,287.55 400.00,287.00 Z" fill="rgb(159,159,159)"/>
<path d="M 279.52 115.25 C295.01,115.92 308.35,115.85 321.94,114.86 C312.28,115.63 302.83,116.00 293.21,116.00 C255.85,116.00 232.17,112.19 202.04,101.34 C188.35,96.41 168.70,87.97 169.37,87.30 C169.60,87.07 177.15,88.68 186.14,90.88 C208.12,96.25 224.70,99.50 243.68,102.17 C257.32,104.08 263.84,104.39 291.00,104.38 C302.33,104.38 309.68,104.36 315.14,104.20 C306.29,105.14 296.67,105.90 286.00,106.55 C278.99,106.97 272.76,107.92 270.06,108.98 C265.89,110.61 265.74,110.79 267.74,111.86 C268.91,112.49 270.91,113.01 272.18,113.02 C274.02,113.03 274.19,113.23 273.02,113.97 C272.00,114.61 274.05,115.02 279.52,115.25 ZM 495.50 115.36 C465.82,103.17 452.17,100.47 424.50,101.33 C420.31,101.46 416.75,101.60 413.40,101.80 C414.44,101.66 415.20,101.47 415.41,101.25 C415.82,100.84 418.17,100.05 420.64,99.50 C424.32,98.68 425.51,97.82 427.28,94.71 C431.20,87.83 426.42,85.26 408.00,84.31 C405.54,84.19 403.56,84.10 401.91,84.07 C403.31,84.03 404.89,84.01 406.69,84.01 C417.55,84.02 436.27,85.94 445.53,88.00 C463.28,91.95 481.45,99.95 494.52,109.57 C506.35,118.28 506.63,119.93 495.50,115.36 ZM 330.87 259.06 C330.37,259.34 328.97,259.60 326.84,259.84 C326.42,259.69 326.24,259.41 326.50,259.00 C326.64,258.77 326.99,258.56 327.45,258.39 C330.00,258.61 331.26,258.84 330.87,259.06 ZM 191.00 259.00 C191.00,258.80 192.33,258.59 194.71,258.39 C195.07,258.56 195.36,258.77 195.50,259.00 C195.67,259.27 195.56,259.51 195.25,259.69 C192.59,259.43 191.00,259.18 191.00,259.00 ZM 387.50 87.38 C374.67,92.44 362.31,96.22 348.55,99.12 C362.91,95.85 375.52,92.05 387.50,87.38 ZM 394.64 103.87 C402.53,102.61 407.56,102.01 410.08,102.01 C410.20,102.01 410.31,102.00 410.42,102.00 C405.47,102.38 400.70,102.94 394.64,103.87 Z" fill="rgb(89,29,30)"/>
<path d="M 198.54 199.07 C198.13,198.41 201.08,193.43 205.48,187.36 C209.69,181.56 213.36,176.23 213.63,175.52 C213.90,174.81 212.75,170.02 211.06,164.87 C209.38,159.71 208.00,155.16 208.00,154.75 C208.00,154.34 210.85,154.00 214.34,154.00 L 220.68 154.00 L 221.90 159.42 C223.74,167.65 224.87,167.80 229.48,160.39 L 233.47 154.00 L 240.72 154.00 L 247.97 154.00 L 239.99 164.64 C235.59,170.49 232.00,176.01 232.00,176.90 C232.00,177.79 233.56,183.00 235.47,188.47 C239.30,199.47 239.18,199.96 232.68,199.98 C227.01,200.01 225.54,198.73 223.52,192.06 C222.51,188.73 221.34,186.00 220.92,186.00 C220.25,186.00 212.39,196.43 211.75,198.18 C211.27,199.49 199.30,200.30 198.54,199.07 ZM 245.66 199.29 C244.33,198.95 243.97,198.21 244.38,196.66 C244.69,195.47 246.87,185.39 249.22,174.25 L 253.50 154.00 L 262.28 154.00 C272.12,154.00 276.97,155.50 279.47,159.31 C283.69,165.76 281.74,175.81 275.31,180.71 C272.68,182.72 270.33,183.49 265.87,183.82 C259.18,184.30 258.59,184.89 257.48,192.30 C257.08,194.94 256.11,197.75 255.31,198.55 C253.91,199.95 249.51,200.29 245.66,199.29 ZM 268.97 170.76 C270.69,167.67 269.62,164.76 266.54,164.16 C264.07,163.67 263.20,164.87 262.41,169.83 C261.72,174.14 261.73,174.16 264.58,173.83 C266.45,173.61 267.97,172.55 268.97,170.76 ZM 284.46 198.75 C284.19,198.06 286.01,188.10 288.49,176.61 C290.97,165.13 293.00,155.35 293.00,154.87 C293.00,154.39 299.13,154.00 306.63,154.00 L 320.26 154.00 L 319.59 158.15 C319.23,160.44 318.69,162.69 318.40,163.15 C318.12,163.62 314.53,164.00 310.44,164.00 L 303.00 164.00 L 303.00 167.50 L 303.00 171.00 L 309.52 171.00 L 316.04 171.00 L 315.37 173.75 C313.66,180.83 313.60,180.88 306.29,181.20 L 299.50 181.50 L 299.19 185.25 C298.85,189.41 298.87,189.42 307.14,189.05 C309.69,188.93 312.03,189.23 312.33,189.72 C313.18,191.11 311.30,198.20 309.82,199.13 C307.59,200.54 285.01,200.20 284.46,198.75 ZM 320.44 198.69 C320.16,197.98 321.98,187.88 324.47,176.26 C326.96,164.64 329.00,154.83 329.00,154.47 C329.00,154.11 333.69,153.97 339.43,154.16 C348.14,154.44 350.32,154.85 352.68,156.61 C358.97,161.31 359.09,170.41 352.96,177.40 C349.46,181.38 349.42,181.76 351.94,187.26 C353.00,189.59 354.55,193.18 355.38,195.24 C356.87,198.93 356.85,199.00 354.43,199.61 C353.08,199.95 350.00,199.93 347.58,199.56 C343.89,199.01 343.09,198.48 342.52,196.20 C341.21,190.99 337.74,184.00 336.46,184.00 C335.31,184.00 333.00,191.66 333.00,195.48 C333.00,196.24 332.29,197.56 331.43,198.43 C329.47,200.39 321.16,200.59 320.44,198.69 ZM 343.00 172.00 C345.66,169.34 345.67,164.35 343.01,163.50 C340.16,162.60 339.26,163.49 338.51,167.97 C337.48,174.07 339.30,175.70 343.00,172.00 ZM 369.10 199.11 C367.92,198.34 368.14,196.09 370.51,184.85 C372.05,177.51 373.52,169.81 373.77,167.75 L 374.21 164.00 L 369.61 164.00 C364.56,164.00 364.40,163.72 366.05,157.75 L 367.09 154.00 L 383.05 154.00 C391.82,154.00 399.00,154.25 399.00,154.56 C399.00,154.86 398.50,157.11 397.88,159.56 L 396.76 164.00 L 391.95 164.00 L 387.14 164.00 L 385.55 171.25 C384.68,175.24 382.95,183.23 381.71,189.00 L 379.46 199.50 L 374.98 199.76 C372.52,199.90 369.87,199.61 369.10,199.11 ZM 279.52 115.25 C274.05,115.02 272.00,114.61 273.02,113.97 C274.19,113.23 274.02,113.03 272.18,113.02 C270.91,113.01 268.91,112.49 267.74,111.86 C265.74,110.79 265.89,110.61 270.06,108.98 C272.76,107.92 278.99,106.97 286.00,106.55 C333.97,103.64 360.87,98.35 391.50,85.78 C395.91,83.97 397.85,83.79 408.00,84.31 C426.42,85.26 431.20,87.83 427.28,94.71 C425.51,97.82 424.32,98.68 420.64,99.50 C418.17,100.05 415.82,100.84 415.41,101.25 C415.00,101.66 412.60,102.00 410.08,102.01 C405.41,102.01 392.14,104.08 368.00,108.56 C333.82,114.91 311.16,116.62 279.52,115.25 Z" fill="rgb(238,47,47)"/>
</g>
</svg>